<svg xmlns="http://www.w3.org/2000/svg" xmlns:xlink="http://www.w3.org/1999/xlink" viewBox="0 0 359.46 216.93" preserveAspectRatio="none"><defs><style>.cls-1{fill:url(#Degradado_sin_nombre_52);}.cls-2{font-size:11px;fill:#fff;font-family:Poppins-Black, Poppins;font-weight:800;letter-spacing:0.2em;}.cls-3,.cls-8,.cls-9{fill:none;stroke-miterlimit:10;}.cls-3{stroke:#ff4ed2;stroke-linecap:round;stroke-dasharray:0 10;}.cls-3,.cls-9{stroke-width:2px;}.cls-4{fill:url(#Degradado_sin_nombre_10);}.cls-5{fill:url(#Degradado_sin_nombre_10-2);}.cls-6{fill:url(#Degradado_sin_nombre_10-3);}.cls-7{fill:url(#Degradado_sin_nombre_10-4);}.cls-8{stroke:#fff;stroke-width:0.5px;}.cls-9{stroke:url(#Degradado_sin_nombre_34);}</style><linearGradient id="Degradado_sin_nombre_52" x1="104.54" y1="253.34" x2="254.93" y2="-7.15" gradientUnits="userSpaceOnUse"><stop offset="0" stop-color="#302160"/><stop offset="0.57" stop-color="#663e9e"/><stop offset="1" stop-color="#853ed0"/></linearGradient><linearGradient id="Degradado_sin_nombre_10" x1="48.19" y1="29.62" x2="104.11" y2="29.62" gradientUnits="userSpaceOnUse"><stop offset="0" stop-color="#9b2fe4"/><stop offset="1" stop-color="#663e9e"/></linearGradient><linearGradient id="Degradado_sin_nombre_10-2" x1="104.11" y1="29.62" x2="117.42" y2="29.62" xlink:href="#Degradado_sin_nombre_10"/><linearGradient id="Degradado_sin_nombre_10-3" x1="255.36" y1="29.62" x2="311.28" y2="29.62" xlink:href="#Degradado_sin_nombre_10"/><linearGradient id="Degradado_sin_nombre_10-4" x1="242.04" y1="29.62" x2="255.36" y2="29.62" xlink:href="#Degradado_sin_nombre_10"/><linearGradient id="Degradado_sin_nombre_34" x1="92.98" y1="258.72" x2="266.48" y2="-41.8" gradientUnits="userSpaceOnUse"><stop offset="0" stop-color="#ff4ed2"/><stop offset="0.05" stop-color="#e84cd7"/><stop offset="0.16" stop-color="#ba47e0"/><stop offset="0.27" stop-color="#9543e7"/><stop offset="0.37" stop-color="#7b40ed"/><stop offset="0.46" stop-color="#6c3ff0"/><stop offset="0.53" stop-color="#663ef1"/><stop offset="1" stop-color="#ff4ed2"/></linearGradient></defs><g id="Layer_2" data-name="Layer 2"><g id="OBJECTS"><path class="cls-1" d="M336.07,206.49H23.39L7.17,190.26V55.93L23.39,39.7H336.07L352.3,55.93V190.26Z"/><line class="cls-3" x1="39.9" y1="12.95" x2="115.34" y2="12.95"/><line class="cls-3" x1="319.56" y1="12.95" x2="244.12" y2="12.95"/><polygon class="cls-4" points="104.11 32.4 53.87 32.4 48.19 26.84 98.42 26.84 104.11 32.4"/><polygon class="cls-5" points="117.42 32.4 109.79 32.4 104.11 26.84 111.74 26.84 117.42 32.4"/><polygon class="cls-6" points="255.36 32.4 305.6 32.4 311.27 26.84 261.04 26.84 255.36 32.4"/><polygon class="cls-7" points="242.04 32.4 249.68 32.4 255.36 26.84 247.72 26.84 242.04 32.4"/><polyline class="cls-8" points="0.98 68.95 24.48 45.45 240.18 45.45"/><polyline class="cls-8" points="358.63 160.05 322.32 196.36 2.7 196.36"/><polyline class="cls-8" points="358.61 165.12 323.8 199.93 4.18 199.93"/><polyline class="cls-8" points="358.63 170.15 325.28 203.5 8.57 203.5"/><path class="cls-9" d="M230,31.62H129.44L119.29,21.17l10.15-10.46H230l10.15,10.46ZM119.29,21.17h-96L1,43.18m29.48-22L1,50.61m357.46,0L329,21.17m29.44,22-22.34-22h-96M358.46,21l-20-20H1V195.93l20,20H358.46Z"/></g></g></svg>