<svg width="916" height="715" viewBox="0 0 916 715" fill="none" xmlns="http://www.w3.org/2000/svg">
<mask id="path-1-inside-1_5_23" fill="white">
<path fill-rule="evenodd" clip-rule="evenodd" d="M0 715V87.1326L87.0107 0H916V628.238L829.359 715H0Z"/>
</mask>
<path fill-rule="evenodd" clip-rule="evenodd" d="M0 715V87.1326L87.0107 0H916V628.238L829.359 715H0Z" fill="url(#paint0_linear_5_23)" fill-opacity="0.2"/>
<path d="M0 87.1326L-0.707601 86.426L-1 86.7188V87.1326H0ZM0 715H-1V716H0V715ZM87.0107 0V-1H86.5961L86.3031 -0.706612L87.0107 0ZM916 0H917V-1H916V0ZM916 628.238L916.708 628.944L917 628.651V628.238H916ZM829.359 715V716H829.774L830.066 715.707L829.359 715ZM-1 87.1326V715H1V87.1326H-1ZM86.3031 -0.706612L-0.707601 86.426L0.707601 87.8392L87.7184 0.706612L86.3031 -0.706612ZM916 -1H87.0107V1H916V-1ZM917 628.238V0H915V628.238H917ZM830.066 715.707L916.708 628.944L915.292 627.531L828.651 714.293L830.066 715.707ZM0 716H829.359V714H0V716Z" fill="url(#paint1_linear_5_23)" mask="url(#path-1-inside-1_5_23)"/>
<defs>
<linearGradient id="paint0_linear_5_23" x1="0" y1="0" x2="916.985" y2="723.265" gradientUnits="userSpaceOnUse">
<stop stop-color="white"/>
<stop offset="1" stop-color="#2F3338" stop-opacity="0"/>
</linearGradient>
<linearGradient id="paint1_linear_5_23" x1="458" y1="0" x2="458" y2="715" gradientUnits="userSpaceOnUse">
<stop stop-color="#FFC0CB"/>
<stop offset="1" stop-color="#FE53BB"/>
</linearGradient>
</defs>
</svg>
