<?xml version="1.0" encoding="UTF-8" standalone="no"?>
<!DOCTYPE svg PUBLIC "-//W3C//DTD SVG 1.1//EN" "http://www.w3.org/Graphics/SVG/1.1/DTD/svg11.dtd">
<svg version="1.1" xmlns="http://www.w3.org/2000/svg" xmlns:xlink="http://www.w3.org/1999/xlink" preserveAspectRatio="xMidYMid meet" viewBox="1.7448394814443888 128.66410727201912 636.7773883046793 382.67178545596175" width="636.78" height="382.67"><defs><path d="M598.36 494.53L41.64 494.53L12.77 465.63L12.77 226.46L41.64 197.57L598.36 197.57L627.25 226.46L627.25 465.63L598.36 494.53Z" id="i5CDTsVCmj"></path><linearGradient id="gradientcDQNlW0Fg" gradientUnits="userSpaceOnUse" x1="186.13" y1="577.94" x2="453.89" y2="114.15"><stop style="stop-color: #302160;stop-opacity: 1" offset="0%"></stop><stop style="stop-color: #663e9e;stop-opacity: 1" offset="56.99999999999999%"></stop><stop style="stop-color: #853ed0;stop-opacity: 1" offset="100%"></stop></linearGradient><path d="M71.04 149.94L205.36 149.94" id="h9JjvmgUc"></path><path d="M568.96 149.94L434.64 149.94" id="a5MHespRd4"></path><path d="M95.91 184.57L85.8 174.67L175.23 174.67L185.36 184.57L185.36 184.57L95.91 184.57Z" id="eR1Cr8WmW"></path><linearGradient id="gradientasxPOeCOK" gradientUnits="userSpaceOnUse" x1="85.8" y1="179.62" x2="185.36" y2="179.62"><stop style="stop-color: #9b2fe4;stop-opacity: 1" offset="0%"></stop><stop style="stop-color: #663e9e;stop-opacity: 1" offset="100%"></stop></linearGradient><path d="M195.48 184.57L185.36 174.67L198.95 174.67L209.06 184.57L209.06 184.57L195.48 184.57Z" id="a15r3fpGtZ"></path><linearGradient id="gradientj1fHuxCUZm" gradientUnits="userSpaceOnUse" x1="185.36" y1="179.62" x2="209.06" y2="179.62"><stop style="stop-color: #9b2fe4;stop-opacity: 1" offset="0%"></stop><stop style="stop-color: #663e9e;stop-opacity: 1" offset="100%"></stop></linearGradient><path d="M544.11 184.57L554.2 174.67L464.77 174.67L454.66 184.57L454.66 184.57L544.11 184.57Z" id="d2JnXVkG1a"></path><linearGradient id="gradientbTDzGzhgd" gradientUnits="userSpaceOnUse" x1="454.66" y1="179.62" x2="554.22" y2="179.62"><stop style="stop-color: #9b2fe4;stop-opacity: 1" offset="0%"></stop><stop style="stop-color: #663e9e;stop-opacity: 1" offset="100%"></stop></linearGradient><path d="M444.54 184.57L454.66 174.67L441.05 174.67L430.94 184.57L430.94 184.57L444.54 184.57Z" id="bbTaOVdD1"></path><linearGradient id="gradienta4wSGzXWj3" gradientUnits="userSpaceOnUse" x1="430.94" y1="179.62" x2="454.66" y2="179.62"><stop style="stop-color: #9b2fe4;stop-opacity: 1" offset="0%"></stop><stop style="stop-color: #663e9e;stop-opacity: 1" offset="100%"></stop></linearGradient><path d="M1.74 249.65L43.59 207.81L427.63 207.81" id="dm8b5n05T"></path><path d="M638.52 411.84L573.87 476.49L4.81 476.49" id="axq5c7tc"></path><path d="M638.49 420.87L576.51 482.85L7.44 482.85" id="ess1Blez"></path><path d="M638.52 429.83L579.14 489.2L15.26 489.2" id="bkgmpY2uj"></path><path d="M409.5 183.18L230.46 183.18L212.39 164.58L230.46 145.95L409.5 145.95L427.57 164.58L409.5 183.18ZM212.39 164.58L41.47 164.58L1.78 203.76M54.27 164.59L1.78 216.99M638.22 216.99L585.77 164.58M638.18 203.75L598.41 164.58L427.49 164.58M638.22 164.27L602.61 128.66L1.78 128.66L1.78 475.73L37.39 511.34L638.22 511.34L638.22 164.27Z" id="e4MT2eUgZW"></path></defs><g><g><g><use xlink:href="#i5CDTsVCmj" opacity="1" fill="url(#gradientcDQNlW0Fg)"></use><g><use xlink:href="#i5CDTsVCmj" opacity="1" fill-opacity="0" stroke="#000000" stroke-width="1" stroke-opacity="0"></use></g></g><g><use xlink:href="#h9JjvmgUc" opacity="1" fill="#000000" fill-opacity="0"></use><g><use xlink:href="#h9JjvmgUc" opacity="1" fill-opacity="0" stroke="#ff4ed2" stroke-width="2" stroke-opacity="1"></use></g></g><g><use xlink:href="#a5MHespRd4" opacity="1" fill="#000000" fill-opacity="0"></use><g><use xlink:href="#a5MHespRd4" opacity="1" fill-opacity="0" stroke="#ff4ed2" stroke-width="2" stroke-opacity="1"></use></g></g><g><use xlink:href="#eR1Cr8WmW" opacity="1" fill="url(#gradientasxPOeCOK)"></use><g><use xlink:href="#eR1Cr8WmW" opacity="1" fill-opacity="0" stroke="#000000" stroke-width="1" stroke-opacity="0"></use></g></g><g><use xlink:href="#a15r3fpGtZ" opacity="1" fill="url(#gradientj1fHuxCUZm)"></use><g><use xlink:href="#a15r3fpGtZ" opacity="1" fill-opacity="0" stroke="#000000" stroke-width="1" stroke-opacity="0"></use></g></g><g><use xlink:href="#d2JnXVkG1a" opacity="1" fill="url(#gradientbTDzGzhgd)"></use><g><use xlink:href="#d2JnXVkG1a" opacity="1" fill-opacity="0" stroke="#000000" stroke-width="1" stroke-opacity="0"></use></g></g><g><use xlink:href="#bbTaOVdD1" opacity="1" fill="url(#gradienta4wSGzXWj3)"></use><g><use xlink:href="#bbTaOVdD1" opacity="1" fill-opacity="0" stroke="#000000" stroke-width="1" stroke-opacity="0"></use></g></g><g><use xlink:href="#dm8b5n05T" opacity="1" fill="#000000" fill-opacity="0"></use><g><use xlink:href="#dm8b5n05T" opacity="1" fill-opacity="0" stroke="#ffffff" stroke-width="0.5" stroke-opacity="1"></use></g></g><g><use xlink:href="#axq5c7tc" opacity="1" fill="#000000" fill-opacity="0"></use><g><use xlink:href="#axq5c7tc" opacity="1" fill-opacity="0" stroke="#ffffff" stroke-width="0.5" stroke-opacity="1"></use></g></g><g><use xlink:href="#ess1Blez" opacity="1" fill="#000000" fill-opacity="0"></use><g><use xlink:href="#ess1Blez" opacity="1" fill-opacity="0" stroke="#ffffff" stroke-width="0.5" stroke-opacity="1"></use></g></g><g><use xlink:href="#bkgmpY2uj" opacity="1" fill="#000000" fill-opacity="0"></use><g><use xlink:href="#bkgmpY2uj" opacity="1" fill-opacity="0" stroke="#ffffff" stroke-width="0.5" stroke-opacity="1"></use></g></g><g><use xlink:href="#e4MT2eUgZW" opacity="1" fill="#000000" fill-opacity="0"></use><g><use xlink:href="#e4MT2eUgZW" opacity="1" fill-opacity="0" stroke="#000000" stroke-width="2" stroke-opacity="1"></use></g></g></g></g></svg>