<svg xmlns="http://www.w3.org/2000/svg" xmlns:xlink="http://www.w3.org/1999/xlink" viewBox="0 0 141.33 215"><defs><style>.cls-1{fill:url(#Degradado_sin_nombre_52);}.cls-2{font-size:11px;fill:#fff;font-family:Poppins-Black, Poppins;font-weight:800;letter-spacing:0.2em;}.cls-3,.cls-7,.cls-8{fill:none;stroke-miterlimit:10;}.cls-3{stroke:#ff4ed2;stroke-linecap:round;stroke-dasharray:0 10;}.cls-3,.cls-8{stroke-width:2px;}.cls-4{fill:url(#Degradado_sin_nombre_10);}.cls-5{fill:url(#Degradado_sin_nombre_10-2);}.cls-6{fill:url(#Degradado_sin_nombre_10-3);}.cls-7{stroke:#fff;stroke-width:0.5px;}.cls-8{stroke:url(#Degradado_sin_nombre_34);}</style><linearGradient id="Degradado_sin_nombre_52" x1="70.83" y1="197.89" x2="70.83" y2="37.23" gradientUnits="userSpaceOnUse"><stop offset="0" stop-color="#302160"/><stop offset="0.57" stop-color="#663e9e"/><stop offset="1" stop-color="#853ed0"/></linearGradient><linearGradient id="Degradado_sin_nombre_10" x1="57.53" y1="205.13" x2="113.44" y2="205.13" gradientUnits="userSpaceOnUse"><stop offset="0" stop-color="#9b2fe4"/><stop offset="1" stop-color="#663e9e"/></linearGradient><linearGradient id="Degradado_sin_nombre_10-2" x1="44.21" y1="205.13" x2="57.53" y2="205.13" xlink:href="#Degradado_sin_nombre_10"/><linearGradient id="Degradado_sin_nombre_10-3" x1="32.56" y1="205.13" x2="45.88" y2="205.13" xlink:href="#Degradado_sin_nombre_10"/><linearGradient id="Degradado_sin_nombre_34" x1="0.06" y1="107.5" x2="141.33" y2="107.5" gradientUnits="userSpaceOnUse"><stop offset="0" stop-color="#ff4ed2"/><stop offset="0.05" stop-color="#e84cd7"/><stop offset="0.16" stop-color="#ba47e0"/><stop offset="0.27" stop-color="#9543e7"/><stop offset="0.37" stop-color="#7b40ed"/><stop offset="0.46" stop-color="#6c3ff0"/><stop offset="0.53" stop-color="#663ef1"/><stop offset="1" stop-color="#ff4ed2"/></linearGradient></defs><g id="Layer_2" data-name="Layer 2"><g id="OBJECTS"><path class="cls-1" d="M116.58,197.89H7.07V55.23l18-18H134.58V179.89Z"/><text class="cls-2" transform="translate(60.96 24.55)">CHAT</text><line class="cls-3" x1="133.64" y1="6.29" x2="84.17" y2="6.29"/><polygon class="cls-4" points="57.53 207.9 107.76 207.9 113.44 202.35 63.21 202.35 57.53 207.9"/><polygon class="cls-5" points="44.21 207.9 51.85 207.9 57.53 202.35 49.89 202.35 44.21 207.9"/><polygon class="cls-6" points="32.56 207.9 40.2 207.9 45.88 202.35 38.24 202.35 32.56 207.9"/><polyline class="cls-7" points="1.18 66.84 24.67 43.34 140.37 43.34"/><polyline class="cls-7" points="0.18 63.81 23.67 40.31 139.37 40.31"/><path class="cls-8" d="M120.33,214H1.06V21l20-20H140.33V194Zm.57-193L110.75,10.54H30.16L20,21,30.16,31.46h80.59ZM1.32,21H20.49M120.9,21h19.17"/></g></g></svg>