<svg xmlns="http://www.w3.org/2000/svg" viewBox="0 0 458.43 271.71"><defs><style>.cls-1{fill:#8144c8;}.cls-2{fill:#6747ed;}.cls-3{fill:#fa55d0;}</style></defs><g id="Layer_2" data-name="Layer 2"><g id="OBJECTS"><path class="cls-1" d="M443.29,203.42v-190H15.14V200.52a1.07,1.07,0,0,1,0,.25l28.7,28.7h96.08l27.75-27.75a1.53,1.53,0,0,1,1.06-.44H292.39a1.54,1.54,0,0,1,1.07.44l27.74,27.75h96.09l26-26S443.29,203.43,443.29,203.42Z"/><polygon class="cls-2" points="1 39.2 11.14 44.3 11.14 33.37 1 28.27 1 39.2"/><path class="cls-3" d="M457.43,0H1V22.19l10.14,5.1V11.93a2.5,2.5,0,0,1,2.5-2.5H444.79a2.5,2.5,0,0,1,2.5,2.5V27.29l10.14-5.1Z"/><polygon class="cls-1" points="1 73.23 11.14 78.33 11.14 67.39 1 62.3 1 73.23"/><polygon class="cls-3" points="1 56.22 11.14 61.31 11.14 50.38 1 45.28 1 56.22"/><path class="cls-1" d="M1,185.24l10.14,10.14v-111L1,79.31a182.33,182.33,0,0,1,7.87,54.27A182.59,182.59,0,0,1,1,185.24Z"/><polygon class="cls-3" points="447.29 50.38 447.29 61.31 457.43 56.22 457.43 45.28 447.29 50.38"/><polygon class="cls-2" points="457.43 28.27 447.29 33.37 447.29 44.3 457.43 39.2 457.43 28.27"/><polygon class="cls-1" points="447.29 78.33 457.43 73.23 457.43 62.3 447.29 67.39 447.29 78.33"/><path class="cls-1" d="M447.29,198.05l10.14-10.14a197.06,197.06,0,0,1,0-108.6l-10.14,5.1Z"/><path class="cls-2" d="M417.91,232.47H320.58a1.52,1.52,0,0,1-1.06-.44l-27.75-27.75H169.33L141.58,232a1.52,1.52,0,0,1-1.06.44H43.19a1.5,1.5,0,0,1-1.06-.44L0,189.9v81.81H458.43V192.57L419,232A1.5,1.5,0,0,1,417.91,232.47Z"/></g></g></svg>